<?xml version="1.0" encoding="UTF-8"?>
<svg id="svg13744" xmlns="http://www.w3.org/2000/svg" viewBox="0 0 923.08 82.76">
  <defs>
    <style>
      .cls-1 {
        fill: #ab1727;
      }
    </style>
  </defs>
  <g id="g13742">
    <path id="path13688" class="cls-1" d="M47.2,2.13h-1.51c-.08,1.76-1.01,2.52-2.77,2.52-3.53,0-9.23-4.28-15.28-4.28C10.41.38,0,17.33,0,32.27s9.91,29.89,26.53,29.89c10.08,0,13.86-4.78,16.55-4.78,1.77,0,2.78,2.19,3.11,3.44h1.26v-20.58h-1.26l-.5,2.86c-1.18,6.81-7.47,17.55-18.3,17.55-9.58,0-13.27-8.99-13.27-29.39S19.15,1.88,27.63,1.88c9.57,0,16.71,11.5,18.05,20.07h1.51V2.13h0Z"/>
    <path id="path13690" class="cls-1" d="M92.99,53.7h-1.49c0,2.16-.91,4.64-2.9,4.64-1.49,0-1.9-1.57-1.9-4.14v-19.06c0-9.44-8.87-11.77-17.4-11.77s-14.33,4.07-14.33,8.7c0,2.91,1.65,5.39,5.38,5.39,3.15,0,5.06-2.07,5.06-4.97,0-3.97-4.13-3.73-4.23-5.13-.07-1.82,4.73-2.48,7.55-2.48,6.21,0,7.04,3.05,7.04,8.03v6.95l-8.12.66c-7.53.58-15.73,2.57-15.73,11.18,0,7.21,6.46,10.12,12.84,10.12,3.23,0,8.94-1.25,11.1-5.22,1.49,3.47,4.56,5.22,8.28,5.22,5.39,0,8.86-3.24,8.86-8.13M75.76,50.97c-.17,4.39-2.66,8.36-6.55,8.36-5.63,0-5.88-5.13-5.88-9.44s.49-7.3,5.88-7.88l6.55-.66v9.62Z"/>
    <path id="path13692" class="cls-1" d="M93.45,60.83h24.77v-1.49h-7.62v-21.14c0-6.38,1.99-10.85,7.21-13.17h.33c-1.41,1.49-1.99,2.81-1.99,4.88,0,3.24,2.4,5.39,5.63,5.39,3.98,0,6.3-2.89,6.3-6.05,0-3.98-2.65-6.38-6.55-6.38-5.3,0-9.36,3.65-10.94,7.79h-.17v-8.45c-1.74,2.15-7.87,2.15-11.27,2.15h-5.72v1.48h5.72v33.5h-5.72v1.49h0Z"/>
    <path id="path13694" class="cls-1" d="M129.38,60.83h22.03v-1.49h-4.89v-22.71c0-4.22,4.14-10.28,8.78-10.28,2.4,0,4.9,1,4.9,6.79v26.2h-4.73v1.49h21.86v-1.49h-5.72v-23.12c0-8.95-3.81-12.85-11.68-12.85-5.54,0-11.01,2.9-13.25,7.7h-.17v-8.86c-1.74,2.15-7.86,2.15-11.26,2.15h-5.88v1.48h5.72v33.5h-5.72v1.49h0Z"/>
    <path id="path13696" class="cls-1" d="M189.41,40.78h22.87c-.08-8.95-8.37-17.56-17.07-17.4-9.77,0-18.23,8.46-18.23,19.64s7.87,18.81,18.48,18.81,15.24-6.3,17.06-14.51h-1.49c-1.82,7.71-6.63,12.51-13.09,12.51-7.7,0-8.54-6.46-8.54-12.09v-6.96ZM189.41,39.28v-7.12c0-5.56,2.41-7.29,5.22-7.29,3.97,0,5.22,2.73,5.22,7.29v7.12h-10.44Z"/>
    <path id="path13698" class="cls-1" d="M253.41,27.11c0-2.91-3.14-4.39-5.63-4.39-2.73,0-4.8,1.82-6.38,3.64-2.41-1.74-5.71-2.99-10.35-2.99-6.96,0-14.42,4.56-14.42,12.1,0,4.55,2.49,8.11,6.88,10.1v.16c-3.23.41-8.29,2.65-8.29,9.53,0,4.13,1.91,7.29,5.39,8.29v.16c-3.31.9-7.12,4.22-7.12,8.19,0,6.13,7.21,10.85,16.4,10.85,11.51,0,19.05-7.79,19.05-17.89,0-8.04-3.98-11.68-12.1-11.51h-13.76c-2.07,0-4.89-.08-4.89-2.31,0-2.08,3.57-4.31,6.71-4.31.91,0,1.82.25,2.74.49.99.33,2.07.5,3.4.5,7.12,0,14.74-4.07,14.74-11.93,0-2.65-1.24-6.37-3.56-8.36,1.49-1.49,2.24-3.32,5.47-3.73v.17c-1.74.91-2.24,1.98-2.24,3.65,0,1.9,1.32,3.81,3.8,3.81,2.66,0,4.14-1.99,4.14-4.23M221.93,63.8h13c8.28,0,11.02.74,11.02,5.8,0,6.05-7.45,11.67-15.82,11.67-7.46,0-11.51-5.05-11.68-9.02,0-3.65,1.24-6.05,3.48-8.45M236.35,35.48c-.09,10.18-2.24,10.76-5.22,10.76-3.31,0-5.06-1.08-5.06-11.02,0-6.7.75-10.34,5.06-10.34,3.89,0,5.13,1.08,5.22,10.6"/>
    <path id="path13700" class="cls-1" d="M254.7,60.83h22.88v-1.49h-5.72V22.2c-1.74,2.15-7.88,2.15-11.27,2.15h-5.89v1.48h5.72v33.5h-5.72v1.49Z"/>
    <path id="path13702" class="cls-1" d="M260.23,11.53c0,3.28,2.63,5.92,5.91,5.92s5.92-2.63,5.92-5.92-2.63-5.91-5.92-5.91c-3.25-.02-5.9,2.6-5.91,5.85v.06"/>
    <path id="path13704" class="cls-1" d="M290.01,40.78h22.86c-.07-8.95-8.37-17.56-17.07-17.4-9.77,0-18.23,8.46-18.23,19.64s7.88,18.81,18.48,18.81,15.25-6.3,17.07-14.51h-1.49c-1.82,7.71-6.62,12.51-13.09,12.51-7.7,0-8.53-6.46-8.53-12.09v-6.96ZM290.01,39.28v-7.12c0-5.56,2.4-7.29,5.22-7.29,3.97,0,5.22,2.73,5.22,7.29v7.12h-10.44Z"/>
    <path id="path13706" class="cls-1" d="M327.37,60.83h16.07v-1.49h-1.16c-4.47,0-6.21-1.16-6.21-7.87V4.51h.17l19.79,56.31h2.24l19.29-55.32h.17v53.83h-7.13v1.49h26.25v-1.49h-6.21V4.01h6.21v-1.49h-19.96l-14,40.01h-.17l-13.75-40.01h-21.2v1.49h6.29v48.21c0,3.56-.82,7.12-6.37,7.12h-.33v1.49h0Z"/>
    <path id="path13708" class="cls-1" d="M408.45,40.78h22.86c-.08-8.95-8.36-17.56-17.06-17.4-9.77,0-18.23,8.46-18.23,19.64s7.87,18.81,18.49,18.81,15.24-6.3,17.06-14.51h-1.49c-1.81,7.71-6.62,12.51-13.09,12.51-7.71,0-8.54-6.46-8.54-12.09v-6.96ZM408.45,39.28v-7.12c0-5.56,2.4-7.29,5.22-7.29,3.98,0,5.22,2.73,5.22,7.29v7.12h-10.44Z"/>
    <path id="path13710" class="cls-1" d="M431.53,60.83h22.88v-1.49h-5.72V0c-1.49,2.48-6.06,2.48-11.94,2.48h-5.22v1.49h5.73v55.36h-5.73v1.49Z"/>
    <path id="path13712" class="cls-1" d="M455.86,60.83h22.88v-1.49h-5.72V0c-1.5,2.48-6.06,2.48-11.94,2.48h-5.23v1.49h5.72v55.36h-5.72v1.49Z"/>
    <path id="path13714" class="cls-1" d="M517.24,42.6c0-11.34-8.78-19.22-19.71-19.22s-19.72,7.88-19.72,19.22,8.79,19.23,19.72,19.23,19.71-7.87,19.71-19.23M504.31,51.54c0,6.22-2.56,8.78-6.79,8.78s-6.79-2.56-6.79-8.78v-17.89c0-6.21,2.57-8.77,6.79-8.77s6.79,2.57,6.79,8.77v17.89Z"/>
    <path id="path13716" class="cls-1" d="M517.29,60.83h22.03v-1.49h-4.88v-22.71c0-4.22,4.14-10.28,8.78-10.28,2.4,0,4.89,1,4.89,6.79v26.2h-4.73v1.49h21.88v-1.49h-5.73v-23.12c0-8.95-3.8-12.85-11.67-12.85-5.55,0-11.01,2.9-13.26,7.7h-.16v-8.86c-1.74,2.15-7.87,2.15-11.27,2.15h-5.89v1.48h5.72v33.5h-5.72v1.49Z"/>
    <path id="path13718" class="cls-1" d="M576.79,4.01h6.46v37.52c0,12.83,8.85,20.62,22.36,20.62,15.24,0,21.86-8.04,21.86-20.22V10.97c0-4.8,1.32-6.96,4.31-6.96h2.15v-1.49h-16.39v1.49h2.4c4.23,0,5.55,2.15,5.55,6.96v31.48c0,11.25-6.8,16.72-14.83,16.72-12.09,0-14.49-8.11-14.49-18.71V4.01h6.71v-1.49h-26.09v1.49Z"/>
    <path id="path13720" class="cls-1" d="M630.71,60.83h22.03v-1.49h-4.88v-22.71c0-4.22,4.13-10.28,8.77-10.28,2.41,0,4.89,1,4.89,6.79v26.2h-4.72v1.49h21.86v-1.49h-5.71v-23.12c0-8.95-3.82-12.85-11.68-12.85-5.55,0-11.02,2.9-13.25,7.7h-.17v-8.86c-1.75,2.15-7.87,2.15-11.28,2.15h-5.87v1.48h5.71v33.5h-5.71v1.49h0Z"/>
    <path id="path13722" class="cls-1" d="M679.87,60.83h22.88v-1.49h-5.72V22.2c-1.75,2.15-7.87,2.15-11.28,2.15h-5.89v1.48h5.73v33.5h-5.73v1.49Z"/>
    <path id="path13724" class="cls-1" d="M685.4,11.53c0,3.28,2.63,5.92,5.92,5.92s5.91-2.63,5.91-5.92-2.63-5.91-5.91-5.91-5.92,2.63-5.92,5.91"/>
    <path id="path13726" class="cls-1" d="M719.54,61.83h2.24l12.26-29c2.07-4.64,3.81-6.88,5.72-6.96h.75v-1.49h-12.93v1.49h1.58c2.4,0,3.8.91,3.8,3.06,0,1.33-.41,3.15-1.41,5.47l-5.63,13.26-9.69-21.79h4.97v-1.49h-20.79v1.49h3.56l15.57,35.96Z"/>
    <path id="path13728" class="cls-1" d="M749.58,40.78h22.87c-.08-8.95-8.37-17.56-17.06-17.4-9.78,0-18.23,8.46-18.23,19.64s7.88,18.81,18.49,18.81,15.23-6.3,17.06-14.51h-1.48c-1.83,7.71-6.63,12.51-13.1,12.51-7.71,0-7.97-6.46-7.97-12.09l-.57-6.96ZM749.58,39.28v-7.12c0-5.56,2.41-7.29,5.23-7.29,3.97,0,5.21,2.73,5.21,7.29v7.12h-10.44Z"/>
    <path id="path13730" class="cls-1" d="M772.64,60.83h24.77v-1.49h-7.62v-21.14c0-6.38,1.99-10.85,7.21-13.17h.33c-1.41,1.49-1.99,2.81-1.99,4.88,0,3.24,2.4,5.39,5.63,5.39,3.98,0,6.3-2.89,6.3-6.05,0-3.98-2.65-6.38-6.55-6.38-5.3,0-9.36,3.65-10.93,7.79h-.17v-8.45c-1.74,2.15-7.87,2.15-11.27,2.15h-5.72v1.48h5.72v33.5h-5.72v1.49h0Z"/>
    <path id="path13732" class="cls-1" d="M809.08,61.83h1.49c.42-1.33,1.74-1.99,3.4-1.99,2.15,0,4.72,1.99,9.36,1.99,7.88,0,13.26-6.8,13.26-13.59,0-10.11-6.95-10.85-15.83-12.1-4.64-.66-7.54-1.41-7.54-5.06,0-3.89,3.4-6.2,7.87-6.2,6.21,0,9.53,4.88,11.61,10.27h1.32l-.5-11.77h-1.24c0,.99-.99,1.82-2.57,1.82-2.65,0-4.81-1.82-8.62-1.82-8.28,0-12.34,7.05-12.34,12.35,0,10.69,8.11,11.59,14.41,12.34,5.97.75,8.46,1.32,8.46,5.14,0,4.4-3.64,7.12-8.12,7.12-6.29,0-11.43-6.38-12.93-12.42h-1.49v13.92h0Z"/>
    <path id="path13734" class="cls-1" d="M838.05,60.83h22.87v-1.49h-5.71V22.2c-1.74,2.15-7.88,2.15-11.27,2.15h-5.89v1.48h5.73v33.5h-5.73v1.49Z"/>
    <path id="path13736" class="cls-1" d="M843.58,11.53c0,3.28,2.62,5.92,5.91,5.92s5.92-2.63,5.92-5.92-2.63-5.91-5.92-5.91-5.9,2.63-5.9,5.91"/>
    <path id="path13738" class="cls-1" d="M864.21,25.87v26.51c0,7.87,6.79,9.45,9.11,9.45,5.06,0,8.45-2.07,11.02-6.38l-1.07-.58c-1,1.49-2.33,3.48-4.4,3.48s-3.23-1.58-3.23-4.3v-28.17h7.63v-1.48h-7.63V6.57h-1.49c0,8.78-5.97,17.81-14.34,17.81v1.48h4.4Z"/>
    <path id="path13740" class="cls-1" d="M882.99,25.87h3.47l15.9,36.85-.49,3.31c-.33,2.41-1.99,11.85-4.73,12.67v-.24c.33-1.16.42-2.07.42-2.81,0-2.82-1.98-4.97-5.47-4.97s-5.46,2.49-5.46,5.63c0,3.4,3.15,5.8,6.78,5.8,6.55,0,8.2-7.22,8.95-10.69l2.24-10.1,4.31-10.77,8.19-18.48c1.83-4.21,3.48-6.21,5.3-6.21h.66v-1.49h-12.92v1.49h1.74c2.64,0,3.81,1.49,3.81,2.9,0,1.64-1.08,4.39-2.4,7.53l-4.8,11.35-9.69-21.78h5.47v-1.49h-21.29v1.49h0Z"/>
  </g>
</svg>